ModelForces
version=1
nRows=4
nColumns=158
inDegrees=no

This file contains the forces exerted on a model during a simulation.

A force is a generalized force, meaning that it can be either a force (N) or a torque (Nm).

Units are S.I. units (second, meters, Newtons, ...)
Angles are in degrees.

endheader
time	glut_med1_r	glut_med2_r	glut_med3_r	glut_min1_r	glut_min2_r	glut_min3_r	semimem_r	semiten_r	bifemlh_r	bifemsh_r	sar_r	add_long_r	add_brev_r	add_mag1_r	add_mag2_r	add_mag3_r	tfl_r	pect_r	grac_r	glut_max1_r	glut_max2_r	glut_max3_r	iliacus_r	psoas_r	quad_fem_r	gem_r	peri_r	rect_fem_r	vas_med_r	vas_int_r	vas_lat_r	med_gas_r	lat_gas_r	soleus_r	tib_post_r	flex_dig_r	flex_hal_r	tib_ant_r	per_brev_r	per_long_r	per_tert_r	ext_dig_r	ext_hal_r	glut_med1_l	glut_med2_l	glut_med3_l	glut_min1_l	glut_min2_l	glut_min3_l	semimem_l	semiten_l	bifemlh_l	bifemsh_l	sar_l	add_long_l	add_brev_l	add_mag1_l	add_mag2_l	add_mag3_l	tfl_l	pect_l	grac_l	glut_max1_l	glut_max2_l	glut_max3_l	iliacus_l	psoas_l	quad_fem_l	gem_l	peri_l	rect_fem_l	vas_med_l	vas_int_l	vas_lat_l	med_gas_l	lat_gas_l	soleus_l	tib_post_l	flex_dig_l	flex_hal_l	tib_ant_l	per_brev_l	per_long_l	per_tert_l	ext_dig_l	ext_hal_l	ercspn_r	ercspn_l	intobl_r	intobl_l	extobl_r	extobl_l	femur_lat_meniscii_r.femur_lat_r.force.X	femur_lat_meniscii_r.femur_lat_r.force.Y	femur_lat_meniscii_r.femur_lat_r.force.Z	femur_lat_meniscii_r.femur_lat_r.torque.X	femur_lat_meniscii_r.femur_lat_r.torque.Y	femur_lat_meniscii_r.femur_lat_r.torque.Z	femur_lat_meniscii_r.meniscus_lat_r.force.X	femur_lat_meniscii_r.meniscus_lat_r.force.Y	femur_lat_meniscii_r.meniscus_lat_r.force.Z	femur_lat_meniscii_r.meniscus_lat_r.torque.X	femur_lat_meniscii_r.meniscus_lat_r.torque.Y	femur_lat_meniscii_r.meniscus_lat_r.torque.Z	femur_med_meniscii_r.femur_med_r.force.X	femur_med_meniscii_r.femur_med_r.force.Y	femur_med_meniscii_r.femur_med_r.force.Z	femur_med_meniscii_r.femur_med_r.torque.X	femur_med_meniscii_r.femur_med_r.torque.Y	femur_med_meniscii_r.femur_med_r.torque.Z	femur_med_meniscii_r.meniscus_med_r.force.X	femur_med_meniscii_r.meniscus_med_r.force.Y	femur_med_meniscii_r.meniscus_med_r.force.Z	femur_med_meniscii_r.meniscus_med_r.torque.X	femur_med_meniscii_r.meniscus_med_r.torque.Y	femur_med_meniscii_r.meniscus_med_r.torque.Z	femur_med_tibia_r.tibia_upper_r.force.X	femur_med_tibia_r.tibia_upper_r.force.Y	femur_med_tibia_r.tibia_upper_r.force.Z	femur_med_tibia_r.tibia_upper_r.torque.X	femur_med_tibia_r.tibia_upper_r.torque.Y	femur_med_tibia_r.tibia_upper_r.torque.Z	femur_med_tibia_r.femur_med_r.force.X	femur_med_tibia_r.femur_med_r.force.Y	femur_med_tibia_r.femur_med_r.force.Z	femur_med_tibia_r.femur_med_r.torque.X	femur_med_tibia_r.femur_med_r.torque.Y	femur_med_tibia_r.femur_med_r.torque.Z	femur_lat_tibia_r.tibia_upper_r.force.X	femur_lat_tibia_r.tibia_upper_r.force.Y	femur_lat_tibia_r.tibia_upper_r.force.Z	femur_lat_tibia_r.tibia_upper_r.torque.X	femur_lat_tibia_r.tibia_upper_r.torque.Y	femur_lat_tibia_r.tibia_upper_r.torque.Z	femur_lat_tibia_r.femur_lat_r.force.X	femur_lat_tibia_r.femur_lat_r.force.Y	femur_lat_tibia_r.femur_lat_r.force.Z	femur_lat_tibia_r.femur_lat_r.torque.X	femur_lat_tibia_r.femur_lat_r.torque.Y	femur_lat_tibia_r.femur_lat_r.torque.Z	aACL_R	pACL_R	aPCL_R	pPCL_R	aMCL_R	mMCL_R	pMCL_R	aLCL_R	mLCL_R	pLCL_R	aPCL_L	pPCL_L	aMCL_L	aLCL_L	ground_prescribedForce_-60_fx	ground_prescribedForce_-60_fy	ground_prescribedForce_-60_fz
      0.19404697	     10.20537690	      7.48367192	      8.03840195	      3.47095736	      4.06119567	      4.31390609	      0.00000000	      5.47436031	      6.33836626	      8.08850515	      2.10291832	      7.43871389	      5.39245673	      3.84868107	      3.25681156	      5.44103970	      3.43594695	      2.92760658	      2.09384409	      4.83033928	      7.34625874	      5.51088060	     25.96251215	     16.72312689	      4.76202590	      3.39508220	      6.02878297	     60.91497635	     21.99577820	     23.20179589	     31.47076876	      0.00000000	      0.86574898	     13.60015818	     22.54182916	      2.99201556	      4.08867472	     17.80376522	      3.61171708	     10.18297172	      6.50991127	      9.91168985	      3.16190431	     10.20537690	      7.48367192	      8.03840195	      3.47095736	      4.06119567	      4.31390609	     12.50501534	      5.50601209	     10.85000358	      9.47710678	      1.98141648	      7.43871389	      5.39245673	      3.84868107	      3.25681156	      5.44103970	      4.99761860	      2.92760658	      2.04170545	      4.83033928	      7.34625874	      5.51088060	     25.96251215	     16.72312689	      4.76202590	      3.39508220	      6.02878297	     14.99340203	      8.77047571	     10.11394667	     10.86388236	     21.41397422	      9.94844461	     45.84559183	     48.42485093	      4.31722881	      4.37708994	     11.73394717	      6.23432623	     16.61908691	      2.58652421	      7.78747935	      2.44505169	     32.66331986	     32.66331986	     12.03243301	     12.03243301	     29.53375127	     29.53375127	    220.75119488	    100.44199233	     24.43475756	    -12.36921569	      5.45111133	     90.25984263	   -220.75119488	   -100.44199233	    -24.43475756	      3.37864960	     -7.25224577	     -1.63249550	    117.80290198	      3.87314641	    -14.27308442	      5.89281002	     -2.43333983	     47.88323376	   -117.80290198	     -3.87314641	     14.27308442	     -0.29299163	      2.11189208	     -1.75236093	   -114.58028711	    -49.50604125	     11.86231213	     -0.81199625	      1.67703551	     -0.82471451	    114.58028711	     49.50604125	    -11.86231213	      5.72364510	     -2.03700994	     46.76493428	    -19.47820026	    -13.76094544	     -6.03277692	      0.52488418	     -0.72456636	     -0.04178877	     19.47820026	     13.76094544	      6.03277692	     -2.80603502	      0.47483958	      7.97664036	     49.43400695	      8.21836573	    322.79085346	     86.90661734	      6.97372315	      3.66497050	      0.00000000	      0.00000000	      0.00000000	      0.00000000	      0.00000000	      0.00000000	      0.00000001	      0.00000000	     55.00000000	    -95.26270000	      0.00000000
      0.19711471	     10.10013273	      7.41201670	      7.96049321	      3.43910807	      4.02645731	      4.26952062	      0.00000000	      5.41067146	      6.30777109	      8.04078612	      2.06692904	      7.36665643	      5.34343417	      3.81202486	      3.22505824	      5.38344583	      3.44129905	      2.90055685	      2.06299617	      4.78396988	      7.27555925	      5.45696512	     25.83114020	     16.57355126	      4.71737359	      3.37350233	      5.95585727	     60.81157846	     21.64511392	     22.85394551	     31.04171845	      0.00000000	      0.85726904	     13.35496832	     23.28783629	      3.12033242	      4.10071547	     17.67147052	      3.43325784	      9.74376157	      6.47000582	      9.62392515	      3.10004951	     10.10013273	      7.41201670	      7.96049321	      3.43910807	      4.02645731	      4.26952062	     12.35937428	      5.44968370	     10.72631524	      9.38815441	      1.96331962	      7.36665643	      5.34343417	      3.81202486	      3.22505824	      5.38344583	      4.96191863	      2.90055685	      2.02273010	      4.78396988	      7.27555925	      5.45696512	     25.83114020	     16.57355126	      4.71737359	      3.37350233	      5.95585727	     14.82401319	      8.68413983	     10.01265707	     10.75529453	     21.14675890	      9.82409267	     45.28946487	     48.18916900	      4.25665818	      4.32014748	     11.60466453	      6.16097993	     16.46256482	      2.56345644	      7.69101899	      2.41502009	     32.36292498	     32.36292498	     11.91251718	     11.91251718	     29.42550194	     29.42550194	    221.29323470	    101.14582862	     24.08789896	    -12.23918003	      5.46094881	     90.48675935	   -221.29323470	   -101.14582862	    -24.08789896	      3.39028485	     -7.26378658	     -1.62263047	    117.95622120	      3.66688113	    -14.49545287	      5.98109611	     -2.43753684	     47.95098420	   -117.95622120	     -3.66688113	     14.49545287	     -0.29495508	      2.11721338	     -1.76124957	   -110.30615538	    -47.74163223	     11.47786625	     -0.78248806	      1.61443737	     -0.78675185	    110.30615538	     47.74163223	    -11.47786625	      5.53581987	     -1.96267569	     45.01938886	    -19.72271004	    -13.97489407	     -6.11867716	      0.53313361	     -0.73463585	     -0.04058183	     19.72271004	     13.97489407	      6.11867716	     -2.84645039	      0.48087103	      8.07683074	     50.42487391	      8.65116139	    320.54245362	     85.14377529	      6.64931999	      3.28940432	      0.00000000	      0.00000000	      0.00000000	      0.00000000	      0.00000000	      0.00000000	      0.00000001	      0.00000000	     55.00000000	    -95.26270000	      0.00000000
      0.20121487	      9.96603870	      7.32069266	      7.86121026	      3.39850332	      3.98218068	      4.21296673	      0.00000000	      5.32502494	      6.26317988	      7.99422129	      2.03492317	      7.27483014	      5.28094635	      3.76530832	      3.18459909	      5.31006303	      3.45237593	      2.86607268	      2.02686004	      4.72488229	      7.18546846	      5.38826770	     25.66378952	     16.38305959	      4.66045514	      3.34602587	      5.86266603	     60.66603381	     21.18007596	     22.38925437	     30.45679787	      0.00000000	      0.85335756	     13.07533931	     24.18431526	      3.32774954	      4.15052743	     17.46574075	      3.23819759	      9.23239794	      6.44492241	      9.20778314	      3.01047434	      9.96603870	      7.32069266	      7.86121026	      3.39850332	      3.98218068	      4.21296673	     12.17350615	      5.37791380	     10.56854996	      9.27476942	      1.94024845	      7.27483014	      5.28094635	      3.76530832	      3.18459909	      5.31006303	      4.91643388	      2.86607268	      1.99854024	      4.72488229	      7.18546846	      5.38826770	     25.66378952	     16.38305959	      4.66045514	      3.34602587	      5.86266603	     14.60799488	      8.57415853	      9.88363644	     10.61699387	     20.80466312	      9.66490560	     44.57885443	     47.88864278	      4.17949070	      4.24767263	     11.43986164	      6.06737060	     16.26265472	      2.53407452	      7.56741791	      2.37655247	     31.97995188	     31.97995188	     11.75972033	     11.75972033	     29.28762025	     29.28762025	    218.25982818	    101.04276034	     26.78460349	    -13.35032525	      5.38591150	     89.22346500	   -218.25982818	   -101.04276034	    -26.78460349	      3.44912683	     -7.24275358	     -1.53673416	    118.70251522	      3.66204870	    -14.27306241	      5.89307371	     -2.44755062	     48.25843761	   -118.70251522	     -3.66204870	     14.27306241	     -0.29318189	      2.11412468	     -1.77225249	   -105.74426839	    -45.79349112	     10.79711868	     -0.74447450	      1.53878129	     -0.74812782	    105.74426839	     45.79349112	    -10.79711868	      5.22279971	     -1.88079017	     43.15716830	    -17.99080996	    -12.79869051	     -5.60572364	      0.48857617	     -0.67144620	     -0.03494010	     17.99080996	     12.79869051	      5.60572364	     -2.60778312	      0.43869292	      7.36765740	     51.36304241	      8.80959358	    317.67164654	     82.49217016	      5.69059550	      2.28420909	      0.00000000	      0.00000000	      0.00000000	      0.00000000	      0.00000000	      0.00000000	      0.00000001	      0.00000000	     55.00000000	    -95.26270000	      0.00000000
      0.20428198	      9.87042002	      7.25555273	      7.79040132	      3.36952593	      3.95059656	      4.17263878	      0.00000000	      5.25424903	      6.21856309	      7.91256195	      2.00025591	      7.20933939	      5.23631857	      3.73198718	      3.15574745	      5.25773529	      3.45542295	      2.84146762	      1.99488470	      4.68274294	      7.12121878	      5.33927931	     25.54447768	     16.24728521	      4.61984910	      3.32644624	      5.79601709	     60.51485603	     20.79534316	     21.99961511	     29.97580284	      0.00000000	      0.83811783	     12.85857816	     24.71495645	      3.50046053	      4.20265996	     17.31270741	      3.12960776	      8.91569884	      6.45579253	      8.88108903	      2.94069438	      9.87042002	      7.25555273	      7.79040132	      3.36952593	      3.95059656	      4.17263878	     12.04075539	      5.32673617	     10.45593199	      9.19388184	      1.92378044	      7.20933939	      5.23631857	      3.73198718	      3.15574745	      5.25773529	      4.88400093	      2.84146762	      1.98128132	      4.68274294	      7.12121878	      5.33927931	     25.54447768	     16.24728521	      4.61984910	      3.32644624	      5.79601709	     14.45382104	      8.49574783	      9.79165899	     10.51841187	     20.55954520	      9.55085298	     44.07068031	     47.67416845	      4.12447556	      4.19605114	     11.32228930	      6.00050871	     16.11975236	      2.51312944	      7.47878531	      2.34897922	     31.70666094	     31.70666094	     11.65075803	     11.65075803	     29.18932748	     29.18932748	    218.02489354	    101.05851873	     25.70401738	    -12.90295028	      5.36994257	     89.13493526	   -218.02489354	   -101.05851873	    -25.70401738	      3.42565276	     -7.20509546	     -1.53210725	    119.71704801	      5.15789800	    -14.80897711	      6.13823757	     -2.47123368	     48.65362143	   -119.71704801	     -5.15789800	     14.80897711	     -0.31991806	      2.14236200	     -1.73236925	   -106.65235949	    -46.18813566	     11.13212321	     -0.75456139	      1.55732519	     -0.75193761	    106.65235949	     46.18813566	    -11.13212321	      5.36734335	     -1.89867199	     43.52885437	    -16.78466244	    -12.00848029	     -5.24753577	      0.45819640	     -0.62732324	     -0.03006566	     16.78466244	     12.00848029	      5.24753577	     -2.44173025	      0.40932900	      6.87341601	     52.59987614	      9.57755973	    315.51084804	     80.83414574	      5.72806915	      2.27703926	      0.00000000	      0.00000000	      0.00000000	      0.00000000	      0.00000000	      0.00000000	      0.00000001	      0.00000000	     55.00000000	    -95.26270000	      0.00000000
